<?xml version="1.0" encoding="UTF-8"?>
<!DOCTYPE svg PUBLIC "-//W3C//DTD SVG 1.1//EN" "http://www.w3.org/Graphics/SVG/1.1/DTD/svg11.dtd">
<!-- Creator: CorelDRAW 2019 (64-Bit) -->
<svg xmlns="http://www.w3.org/2000/svg" xml:space="preserve" width="456px" height="63px" version="1.1" shape-rendering="geometricPrecision" text-rendering="geometricPrecision" image-rendering="optimizeQuality" fill-rule="evenodd" clip-rule="evenodd"
viewBox="0 0 865.19 120.11"
 xmlns:xlink="http://www.w3.org/1999/xlink">
<symbol id="Сердце" viewBox="178.22 432.31 99.56 96.33">
 <path fill="red" fill-rule="nonzero" stroke="red" stroke-width="4.48" stroke-miterlimit="22.9256" d="M228 451.61c5.94,-11.37 11.88,-17.06 23.77,-17.06 13.12,0 23.77,10.19 23.77,22.75 0,22.75 -23.77,45.49 -47.54,68.24 -23.77,-22.75 -47.54,-45.49 -47.54,-68.24 0,-12.56 10.65,-22.75 23.77,-22.75 11.89,0 17.83,5.69 23.77,17.06z"/>
</symbol>
 <g id="Слой_x0020_1">
  <metadata id="CorelCorpID_0Corel-Layer"/>
  <use transform="matrix(0.841785 -0.539813 0.539813 0.841785 -393.287 -223.681)" x="178.22" y="432.31" width="99.56" height="96.33" xlink:href="#Сердце"/>
  <use transform="matrix(0.750765 0.240859 -0.240859 0.750765 134.098 -334.11)" x="178.22" y="432.31" width="99.56" height="96.33" xlink:href="#Сердце"/>
  <use transform="matrix(0.811974 0.260505 -0.260505 0.811974 505.372 -368.883)" x="178.22" y="432.31" width="99.56" height="96.33" xlink:href="#Сердце"/>
  <use transform="matrix(0.530526 -0.847669 0.847669 0.530526 -200.769 2.55642)" x="178.22" y="432.31" width="99.56" height="96.33" xlink:href="#Сердце"/>
  <use transform="matrix(-0.544327 -0.450619 0.450619 -0.544327 628.046 424.33)" x="178.22" y="432.31" width="99.56" height="96.33" xlink:href="#Сердце"/>
  <use transform="matrix(0.653684 -0.261974 0.261974 0.653684 169.426 -186.445)" x="178.22" y="432.31" width="99.56" height="96.33" xlink:href="#Сердце"/>
  <use transform="matrix(0.928231 -0.372004 0.372004 0.928231 434.293 -292.569)" x="178.22" y="432.31" width="99.56" height="96.33" xlink:href="#Сердце"/>
 </g>
</svg>
